<svg width="694" height="435" viewBox="0 0 694 435" fill="none" xmlns="http://www.w3.org/2000/svg">
<path d="M12.4818 357.69H2.5918V434.33H12.4818V357.69Z" fill="#BF902D"/>
<path fill-rule="evenodd" clip-rule="evenodd" d="M70.7527 416.98H70.5627L30.3727 357.69H21.4727V434.33H30.9127V375.06H31.1227L71.3727 434.33H80.2327V357.69H70.7527V416.98Z" fill="#BF902D"/>
<path fill-rule="evenodd" clip-rule="evenodd" d="M103.592 434.3H113.142V366.76H132.152V357.69H84.582V366.76H103.592V434.3Z" fill="#BF902D"/>
<path fill-rule="evenodd" clip-rule="evenodd" d="M134.723 434.06H174.233V425.04H144.363V400.03H174.233V390.99H144.363V366.76H174.233V357.69H134.723V434.06Z" fill="#BF902D"/>
<path fill-rule="evenodd" clip-rule="evenodd" d="M568.103 416.88H567.863L527.373 357.69H518.473V434.19H527.993V375.03H528.183L568.673 434.19H577.583V357.69H568.103V416.88Z" fill="#BF902D"/>
<path fill-rule="evenodd" clip-rule="evenodd" d="M220.452 434.44H233.882L204.422 403.82C216.772 403.13 227.442 394.67 227.442 380.91C227.442 366.19 216.572 357.69 202.062 357.69H180.262V434.44H189.792V401.73L220.452 434.44ZM189.802 366.18H201.832C211.792 366.18 217.892 372.03 217.892 381C217.892 389.41 212.792 395.87 198.182 395.87C192.492 395.87 191.142 395.87 189.802 395.76V366.18Z" fill="#BF902D"/>
<path fill-rule="evenodd" clip-rule="evenodd" d="M289.812 416.88H289.602L249.102 357.69H240.182V434.19H249.712V375.03H249.882L290.402 434.19H299.312V357.69H289.812V416.88Z" fill="#BF902D"/>
<path fill-rule="evenodd" clip-rule="evenodd" d="M363.502 434.3H374.082L342.952 357.69H334.462L303.342 434.3H313.942L320.872 416.44H356.532L363.502 434.3ZM353.242 407.99H324.192L338.742 370.39L353.242 407.99Z" fill="#BF902D"/>
<path fill-rule="evenodd" clip-rule="evenodd" d="M380.632 434.23H390.322V366.76H409.442V357.69H361.512V366.76H380.632V434.23Z" fill="#BF902D"/>
<path d="M422.412 357.69H412.752V434.22H422.412V357.69Z" fill="#BF902D"/>
<path fill-rule="evenodd" clip-rule="evenodd" d="M429.961 395.96C429.961 414.75 444.461 435.17 470.241 435.17C496.001 435.17 510.521 414.74 510.521 395.96C510.521 377.19 496.011 356.81 470.241 356.81C444.461 356.82 429.961 377.2 429.961 395.96ZM440.141 395.96C440.141 378 454.751 365.78 470.241 365.78C485.731 365.78 500.301 378 500.301 395.96C500.301 413.98 485.721 426.15 470.241 426.15C454.751 426.16 440.141 413.98 440.141 395.96Z" fill="#BF902D"/>
<path fill-rule="evenodd" clip-rule="evenodd" d="M654.822 434.3H691.072V425.22H664.412V357.69H654.822V434.3Z" fill="#BF902D"/>
<path fill-rule="evenodd" clip-rule="evenodd" d="M641.472 434.3H652.052L620.902 357.69H612.422L581.252 434.3H591.882L598.832 416.44H634.502L641.472 434.3ZM631.192 407.99H602.142L616.672 370.39L631.192 407.99Z" fill="#BF902D"/>
<path fill-rule="evenodd" clip-rule="evenodd" d="M506.69 154.18C534.61 152.19 564.61 150.45 589.78 151.5L517.4 162.92C524.44 169.96 573.21 193.62 583.11 198.4C587.59 200.26 595.95 205.38 600.41 207.82C630.44 223.86 634.9 255.86 611.32 275.25C577.38 303.09 534.63 282.47 513.83 248.8L474.16 292.15C484.32 307.13 494.84 316.91 509.5 324.48C553.2 346.94 609.45 347.66 650.7 319.16C684.3 295.95 702.83 254.85 688.05 215.17C682.58 200.37 674.76 189.3 665.74 180.32C639.69 154.38 602.71 146.18 570.52 125.54C549.31 111.92 536.97 92.27 551.47 71.69C575.82 38.17 623.2 51.07 640.84 81.86L683.59 42.41C671.21 29.15 661.17 20.33 645.06 12.19C596.7 -12.17 514.15 1.28999 488.47 51.96C464.28 99.64 486.28 132.18 506.69 154.18Z" fill="#828181"/>
<path fill-rule="evenodd" clip-rule="evenodd" d="M102.061 139.98H69.6007V58.13C77.1807 58.13 107.521 57.65 113.611 58.72C128.161 61.21 141.001 73.65 143.661 88.34C149.091 118.51 132.761 139.98 102.061 139.98ZM0.470703 280.39L69.4607 252.32C69.4607 230.95 69.3307 209.54 69.2207 188.16H110.761C128.481 188.16 148.901 206.23 148.901 224.23L208.891 205.86C200.401 186.17 170.681 166.36 142.991 164.4V158.71C160.251 158.71 183.291 145.29 194.551 132.61C201.971 124.28 205.381 113.48 207.791 102.78C209.101 94.81 208.381 87.25 207.231 80.11C199.661 32.84 148.521 8.89999 102.061 8.89999L0.470703 9V280.39Z" fill="#828181"/>
<path fill-rule="evenodd" clip-rule="evenodd" d="M0.470947 331.02C11.8909 331.02 109.131 331.34 111.981 330.86C125.271 330.06 143.081 327.88 154.901 322.46L161.811 319.69C168.121 316.63 167.931 317.06 174.321 313.16C174.911 312.78 175.011 312.83 175.501 312.57L184.121 306.63C195.891 297.34 204.831 286.49 210.821 272.69C216.191 260.34 217.541 251.08 217.541 237.38L141.351 266.17L62.0209 300.03L0.460938 330.05V331.02H0.470947Z" fill="#828181"/>
<path fill-rule="evenodd" clip-rule="evenodd" d="M271.25 7.53H340.61V174.97L271.25 189.57V7.53Z" fill="#828181"/>
<path fill-rule="evenodd" clip-rule="evenodd" d="M271.25 221.11L340.54 201.01L340.61 276.4H449.46V329.65H271.25V221.11Z" fill="#828181"/>
</svg>
